<svg xmlns="http://www.w3.org/2000/svg" xmlns:xlink="http://www.w3.org/1999/xlink" width="500" zoomAndPan="magnify" viewBox="0 0 375 374.999991" height="500" preserveAspectRatio="xMidYMid meet" version="1.2"><defs><clipPath id="e71bf678b5"><path d="M 30 9.375 L 345 9.375 L 345 365.625 L 30 365.625 Z M 30 9.375 "/></clipPath><clipPath id="11c52bd99c"><path d="M 115.195312 37.5 L 269 37.5 L 269 255.75 L 115.195312 255.75 Z M 115.195312 37.5 "/></clipPath></defs><g id="8ea01ebcf5"><g clip-rule="nonzero" clip-path="url(#e71bf678b5)"><path style=" stroke:none;fill-rule:evenodd;fill:#ffffff;fill-opacity:1;" d="M 187.507812 9.445312 C 100.789062 9.445312 30.464844 79.769531 30.464844 166.488281 C 30.464844 197.804688 39.636719 226.976562 55.4375 251.476562 C 57.199219 251.550781 58.960938 251.605469 60.726562 251.644531 C 44.347656 227.3125 34.789062 198.015625 34.789062 166.488281 C 34.789062 82.160156 103.175781 13.769531 187.507812 13.769531 C 271.835938 13.769531 340.222656 82.160156 340.222656 166.488281 C 340.222656 198.015625 330.664062 227.3125 314.285156 251.644531 C 316.050781 251.605469 317.8125 251.550781 319.574219 251.476562 C 335.375 226.976562 344.546875 197.804688 344.546875 166.488281 C 344.546875 79.769531 274.222656 9.445312 187.507812 9.445312 Z M 33.894531 255.128906 C 81.46875 269.558594 158.933594 298.328125 184.917969 300.140625 C 169.800781 280.273438 158.6875 263.507812 131.050781 258.683594 C 123.8125 257.421875 116.40625 257.007812 109.066406 256.902344 C 60.046875 257.964844 51.792969 257.773438 33.894531 255.128906 Z M 341.117188 255.128906 C 323.21875 257.773438 314.964844 257.964844 265.945312 256.902344 C 258.605469 257.007812 251.199219 257.421875 243.960938 258.683594 C 216.324219 263.507812 205.210938 280.273438 190.09375 300.140625 C 216.078125 298.328125 293.542969 269.558594 341.117188 255.128906 Z M 33.894531 257.269531 L 114.019531 337.75 L 187.507812 365.554688 L 260.992188 337.75 L 341.117188 257.269531 C 289.914062 272.988281 239.183594 298.894531 187.507812 304.417969 C 135.828125 298.894531 85.097656 272.988281 33.894531 257.269531 Z M 106.386719 260.097656 C 114.800781 260.105469 123.058594 260.472656 130.511719 261.773438 C 151.925781 265.507812 163.832031 276.058594 175.078125 292.882812 C 168.660156 286.648438 159.574219 281.441406 155.628906 279.230469 C 142.632812 271.945312 126.070312 269.636719 109.699219 267.679688 C 94.195312 265.828125 78.980469 262.878906 70.511719 260.640625 C 81.453125 260.863281 94.085938 260.09375 106.386719 260.097656 Z M 268.625 260.097656 C 280.925781 260.09375 293.558594 260.863281 304.5 260.640625 C 296.03125 262.878906 280.816406 265.828125 265.3125 267.679688 C 248.941406 269.636719 232.378906 271.945312 219.382812 279.230469 C 215.4375 281.441406 206.351562 286.648438 199.933594 292.882812 C 211.179688 276.058594 223.085938 265.507812 244.5 261.773438 C 251.953125 260.472656 260.210938 260.105469 268.625 260.097656 Z M 66.363281 262.554688 C 86.359375 267.789062 97.878906 269.621094 110.785156 271.339844 C 123.03125 272.972656 142.722656 275.578125 155.851562 283.1875 C 161.738281 286.597656 174.28125 295.511719 172.109375 294.847656 Z M 308.648438 262.554688 L 202.902344 294.847656 C 200.730469 295.511719 213.273438 286.597656 219.160156 283.1875 C 232.289062 275.578125 251.980469 272.972656 264.226562 271.339844 C 277.132812 269.621094 288.652344 267.789062 308.648438 262.554688 Z M 308.648438 262.554688 "/></g><path style=" stroke:none;fill-rule:evenodd;fill:#f7931a;fill-opacity:1;" d="M 39.464844 43.070312 C 33.414062 61.078125 34.769531 70.921875 50.925781 86.714844 C 54.59375 75.132812 53.40625 56.375 39.464844 43.070312 Z M 335.546875 43.070312 C 321.605469 56.375 320.417969 75.132812 324.085938 86.714844 C 340.242188 70.921875 341.597656 61.078125 335.546875 43.070312 Z M 88.097656 76.34375 C 74.824219 76.359375 63.375 82.671875 56.980469 89.429688 C 78.632812 95.890625 87.894531 92.300781 100.707031 78.269531 C 96.394531 76.925781 92.160156 76.339844 88.097656 76.34375 Z M 286.914062 76.34375 C 282.851562 76.335938 278.617188 76.925781 274.304688 78.269531 C 287.117188 92.300781 296.378906 95.890625 318.03125 89.429688 C 311.636719 82.671875 300.1875 76.359375 286.914062 76.34375 Z M 19.632812 76.75 C 15.992188 95.398438 18.625 104.976562 36.707031 118.519531 C 38.824219 106.558594 35.195312 88.117188 19.632812 76.75 Z M 355.378906 76.75 C 339.816406 88.117188 336.1875 106.558594 338.304688 118.519531 C 356.390625 104.976562 359.019531 95.398438 355.378906 76.75 Z M 77.992188 103.011719 C 62.152344 102.90625 49.296875 111.804688 43.066406 120.417969 C 65.375 123.992188 74.085938 119.222656 84.953125 103.632812 C 82.578125 103.222656 80.257812 103.027344 77.992188 103.011719 Z M 297.019531 103.011719 C 294.753906 103.027344 292.433594 103.226562 290.058594 103.632812 C 300.925781 119.222656 309.636719 123.992188 331.945312 120.417969 C 325.714844 111.804688 312.859375 102.90625 297.019531 103.011719 Z M 6.199219 116.007812 C 5.582031 135 9.707031 144.035156 29.71875 154.519531 C 29.902344 142.371094 23.378906 124.746094 6.199219 116.007812 Z M 368.8125 116.007812 C 351.632812 124.746094 345.109375 142.371094 345.292969 154.519531 C 365.304688 144.035156 369.429688 135 368.8125 116.007812 Z M 74.074219 132.125 C 55.269531 132.3125 41.675781 144.695312 36.300781 155.378906 C 58.894531 155.347656 66.734375 149.246094 74.972656 132.125 C 74.671875 132.125 74.371094 132.125 74.074219 132.125 Z M 300.9375 132.125 C 300.640625 132.125 300.339844 132.125 300.039062 132.125 C 308.277344 149.246094 316.117188 155.34375 338.710938 155.378906 C 333.335938 144.695312 319.742188 132.3125 300.9375 132.125 Z M -0.00390625 156.933594 C 3.5 175.609375 9.480469 183.539062 31.289062 189.449219 C 28.839844 177.546875 18.65625 161.75 -0.00390625 156.933594 Z M 375.015625 156.933594 C 356.355469 161.75 346.171875 177.546875 343.722656 189.449219 C 365.53125 183.539062 371.511719 175.609375 375.015625 156.933594 Z M 70.628906 157.796875 C 51.769531 161.765625 40.882812 177.085938 37.898438 188.863281 C 59.949219 183.945312 66.285156 176.296875 70.628906 157.796875 Z M 304.382812 157.796875 C 308.726562 176.296875 315.0625 183.945312 337.113281 188.863281 C 334.128906 177.085938 323.242188 161.765625 304.382812 157.796875 Z M 70.398438 185.328125 C 53.203125 194.03125 46.640625 211.640625 46.796875 223.789062 C 66.835938 213.347656 70.980469 204.320312 70.398438 185.328125 Z M 304.613281 185.328125 C 304.03125 204.320312 308.179688 213.347656 328.214844 223.789062 C 328.371094 211.640625 321.808594 194.03125 304.613281 185.328125 Z M 1.9375 202.726562 C 10.144531 219.863281 17.96875 225.980469 40.5625 226.0625 C 35.125 215.195312 21.210938 202.5625 1.9375 202.726562 Z M 373.074219 202.726562 C 353.800781 202.5625 339.886719 215.195312 334.449219 226.0625 C 357.042969 225.980469 364.867188 219.863281 373.074219 202.726562 Z M 373.074219 202.726562 "/><g clip-rule="nonzero" clip-path="url(#11c52bd99c)"><path style=" stroke:none;fill-rule:evenodd;fill:#f8991d;fill-opacity:1;" d="M 152.113281 71.582031 L 115.195312 71.582031 L 115.195312 92.296875 L 140.796875 92.296875 L 140.796875 199.085938 L 115.195312 199.085938 L 115.195312 221.21875 L 152.113281 221.21875 L 152.113281 255.167969 L 172.304688 255.167969 L 172.304688 221.167969 L 173.414062 221.167969 L 173.414062 220.546875 L 189.53125 220.546875 L 189.53125 255.167969 L 209.714844 255.167969 L 209.714844 220.546875 L 219.527344 220.546875 C 277.996094 220.546875 283.945312 151.492188 236.605469 138.109375 C 271.3125 122.445312 263.394531 71.582031 213.417969 71.582031 L 209.714844 71.582031 L 209.714844 37.578125 L 189.53125 37.578125 L 189.53125 71.582031 L 172.304688 71.582031 L 172.304688 37.578125 L 152.113281 37.578125 Z M 175.679688 195.847656 L 204.917969 195.847656 C 216.898438 195.847656 230.636719 188.144531 230.636719 175.125 L 230.636719 175.117188 C 230.636719 162.097656 216.894531 153.902344 204.917969 153.902344 L 175.679688 153.902344 Z M 173.414062 92.308594 L 200.085938 92.308594 C 211.015625 92.308594 219.960938 101.253906 219.960938 112.183594 C 219.960938 123.117188 211.015625 132.0625 200.085938 132.0625 L 173.414062 132.0625 Z M 173.414062 92.308594 "/></g></g></svg>